<?xml version="1.0" encoding="UTF-8"?>
<!DOCTYPE svg PUBLIC "-//W3C//DTD SVG 1.1//EN" "http://www.w3.org/Graphics/SVG/1.1/DTD/svg11.dtd">
<svg version="1.1" xmlns="http://www.w3.org/2000/svg" xmlns:xlink="http://www.w3.org/1999/xlink" x="0" y="0" width="768" height="750" viewBox="0, 0, 768, 750">
  <g id="Layer_1">
    <g>
      <path d="M49.5,207.5 L136.5,207.5 C143.127,207.5 148.5,212.873 148.5,219.5 L148.5,300.5 C148.5,307.127 143.127,312.5 136.5,312.5 L49.5,312.5 C42.873,312.5 37.5,307.127 37.5,300.5 L37.5,219.5 C37.5,212.873 42.873,207.5 49.5,207.5 z" fill="#FFFFFF"/>
      <path d="M49.5,207.5 L136.5,207.5 C143.127,207.5 148.5,212.873 148.5,219.5 L148.5,300.5 C148.5,307.127 143.127,312.5 136.5,312.5 L49.5,312.5 C42.873,312.5 37.5,307.127 37.5,300.5 L37.5,219.5 C37.5,212.873 42.873,207.5 49.5,207.5 z" fill-opacity="0" stroke="#006CAA" stroke-width="3"/>
    </g>
    <path d="M70.833,285.5 C70.833,285.5 66.5,285.5 66.5,281.167 C66.5,276.833 70.833,263.833 92.5,263.833 C114.167,263.833 118.5,276.833 118.5,281.167 C118.5,285.5 114.167,285.5 114.167,285.5 L70.833,285.5 z M92.5,259.5 C99.68,259.5 105.5,253.68 105.5,246.5 C105.5,239.32 99.68,233.5 92.5,233.5 C85.32,233.5 79.5,239.32 79.5,246.5 C79.5,253.68 85.32,259.5 92.5,259.5 z" fill="#006CAA"/>
    <g>
      <path d="M500.894,189 L629.603,189 C634.239,189 637.998,192.758 637.998,197.394 L637.998,322.606 C637.998,327.242 634.239,331 629.603,331 L500.894,331 C496.258,331 492.5,327.242 492.5,322.606 L492.5,197.394 C492.5,192.758 496.258,189 500.894,189 z" fill="#FFFFFF"/>
      <path d="M500.894,189 L629.603,189 C634.239,189 637.998,192.758 637.998,197.394 L637.998,322.606 C637.998,327.242 634.239,331 629.603,331 L500.894,331 C496.258,331 492.5,327.242 492.5,322.606 L492.5,197.394 C492.5,192.758 496.258,189 500.894,189 z" fill-opacity="0" stroke="#00A8AA" stroke-width="3"/>
    </g>
    <g>
      <path d="M415.884,450.323 C420.403,448.27 426.826,446.933 434.049,446.933 C441.271,446.933 447.694,448.265 452.213,450.323 C456.959,452.483 458.715,454.96 458.715,456.8 C458.715,458.645 456.959,461.117 452.213,463.277 C447.694,465.33 441.271,466.667 434.049,466.667 C426.826,466.667 420.403,465.335 415.884,463.277 C411.138,461.117 409.382,458.64 409.382,456.8 C409.382,454.955 411.138,452.483 415.884,450.323 z M458.715,465.177 L458.715,471.6 C458.715,473.445 456.959,475.917 452.213,478.077 C447.694,480.13 441.271,481.467 434.049,481.467 C426.826,481.467 420.403,480.135 415.884,478.077 C411.138,475.917 409.382,473.44 409.382,471.6 L409.382,465.177 C410.719,466.173 412.243,467.042 413.842,467.767 C419.14,470.174 426.289,471.6 434.049,471.6 C441.809,471.6 448.957,470.174 454.256,467.767 C455.83,467.064 457.325,466.196 458.715,465.177 z M463.649,456.8 C463.649,451.832 459.332,448.142 454.256,445.833 C448.957,443.426 441.809,442 434.049,442 C426.289,442 419.14,443.426 413.842,445.833 C408.765,448.142 404.449,451.832 404.449,456.8 L404.449,501.2 C404.449,506.168 408.765,509.858 413.842,512.167 C419.14,514.569 426.289,516 434.049,516 C441.809,516 448.957,514.574 454.256,512.167 C459.332,509.858 463.649,506.168 463.649,501.2 L463.649,456.8 z M458.715,479.977 L458.715,486.4 C458.715,488.245 456.959,490.717 452.213,492.877 C447.694,494.93 441.271,496.267 434.049,496.267 C426.826,496.267 420.403,494.935 415.884,492.877 C411.138,490.717 409.382,488.24 409.382,486.4 L409.382,479.977 C410.719,480.973 412.243,481.842 413.842,482.567 C419.14,484.969 426.289,486.4 434.049,486.4 C441.809,486.4 448.957,484.974 454.256,482.567 C455.83,481.864 457.325,480.996 458.715,479.977 z M458.715,494.777 L458.715,501.2 C458.715,503.045 456.959,505.517 452.213,507.677 C447.694,509.73 441.271,511.067 434.049,511.067 C426.826,511.067 420.403,509.735 415.884,507.677 C411.138,505.517 409.382,503.04 409.382,501.2 L409.382,494.777 C410.719,495.773 412.243,496.642 413.842,497.367 C419.14,499.769 426.289,501.2 434.049,501.2 C441.809,501.2 448.957,499.774 454.256,497.367 C455.854,496.642 457.379,495.773 458.715,494.777 z" fill="#FFFFFF"/>
      <path d="M415.884,450.323 C420.403,448.27 426.826,446.933 434.049,446.933 C441.271,446.933 447.694,448.265 452.213,450.323 C456.959,452.483 458.715,454.96 458.715,456.8 C458.715,458.645 456.959,461.117 452.213,463.277 C447.694,465.33 441.271,466.667 434.049,466.667 C426.826,466.667 420.403,465.335 415.884,463.277 C411.138,461.117 409.382,458.64 409.382,456.8 C409.382,454.955 411.138,452.483 415.884,450.323 z M458.715,465.177 L458.715,471.6 C458.715,473.445 456.959,475.917 452.213,478.077 C447.694,480.13 441.271,481.467 434.049,481.467 C426.826,481.467 420.403,480.135 415.884,478.077 C411.138,475.917 409.382,473.44 409.382,471.6 L409.382,465.177 C410.719,466.173 412.243,467.042 413.842,467.767 C419.14,470.174 426.289,471.6 434.049,471.6 C441.809,471.6 448.957,470.174 454.256,467.767 C455.83,467.064 457.325,466.196 458.715,465.177 z M463.649,456.8 C463.649,451.832 459.332,448.142 454.256,445.833 C448.957,443.426 441.809,442 434.049,442 C426.289,442 419.14,443.426 413.842,445.833 C408.765,448.142 404.449,451.832 404.449,456.8 L404.449,501.2 C404.449,506.168 408.765,509.858 413.842,512.167 C419.14,514.569 426.289,516 434.049,516 C441.809,516 448.957,514.574 454.256,512.167 C459.332,509.858 463.649,506.168 463.649,501.2 L463.649,456.8 z M458.715,479.977 L458.715,486.4 C458.715,488.245 456.959,490.717 452.213,492.877 C447.694,494.93 441.271,496.267 434.049,496.267 C426.826,496.267 420.403,494.935 415.884,492.877 C411.138,490.717 409.382,488.24 409.382,486.4 L409.382,479.977 C410.719,480.973 412.243,481.842 413.842,482.567 C419.14,484.969 426.289,486.4 434.049,486.4 C441.809,486.4 448.957,484.974 454.256,482.567 C455.83,481.864 457.325,480.996 458.715,479.977 z M458.715,494.777 L458.715,501.2 C458.715,503.045 456.959,505.517 452.213,507.677 C447.694,509.73 441.271,511.067 434.049,511.067 C426.826,511.067 420.403,509.735 415.884,507.677 C411.138,505.517 409.382,503.04 409.382,501.2 L409.382,494.777 C410.719,495.773 412.243,496.642 413.842,497.367 C419.14,499.769 426.289,501.2 434.049,501.2 C441.809,501.2 448.957,499.774 454.256,497.367 C455.854,496.642 457.379,495.773 458.715,494.777 z" fill-opacity="0" stroke="#00A8AA" stroke-width="3"/>
    </g>
    <g>
      <g>
        <path d="M546.984,447.323 C551.503,445.27 557.926,443.933 565.149,443.933 C572.371,443.933 578.794,445.265 583.313,447.323 C588.059,449.483 589.815,451.96 589.815,453.8 C589.815,455.645 588.059,458.117 583.313,460.277 C578.794,462.33 572.371,463.667 565.149,463.667 C557.926,463.667 551.503,462.335 546.984,460.277 C542.238,458.117 540.482,455.64 540.482,453.8 C540.482,451.955 542.238,449.483 546.984,447.323 z M589.815,462.177 L589.815,468.6 C589.815,470.445 588.059,472.917 583.313,475.077 C578.794,477.13 572.371,478.467 565.149,478.467 C557.926,478.467 551.503,477.135 546.984,475.077 C542.238,472.917 540.482,470.44 540.482,468.6 L540.482,462.177 C541.819,463.173 543.343,464.042 544.942,464.767 C550.24,467.174 557.389,468.6 565.149,468.6 C572.909,468.6 580.057,467.174 585.356,464.767 C586.93,464.064 588.425,463.196 589.815,462.177 z M594.749,453.8 C594.749,448.832 590.432,445.142 585.356,442.833 C580.057,440.426 572.909,439 565.149,439 C557.389,439 550.24,440.426 544.942,442.833 C539.865,445.142 535.549,448.832 535.549,453.8 L535.549,498.2 C535.549,503.168 539.865,506.858 544.942,509.167 C550.24,511.569 557.389,513 565.149,513 C572.909,513 580.057,511.574 585.356,509.167 C590.432,506.858 594.749,503.168 594.749,498.2 L594.749,453.8 z M589.815,476.977 L589.815,483.4 C589.815,485.245 588.059,487.717 583.313,489.877 C578.794,491.93 572.371,493.267 565.149,493.267 C557.926,493.267 551.503,491.935 546.984,489.877 C542.238,487.717 540.482,485.24 540.482,483.4 L540.482,476.977 C541.819,477.973 543.343,478.842 544.942,479.567 C550.24,481.969 557.389,483.4 565.149,483.4 C572.909,483.4 580.057,481.974 585.356,479.567 C586.93,478.864 588.425,477.996 589.815,476.977 z M589.815,491.777 L589.815,498.2 C589.815,500.045 588.059,502.517 583.313,504.677 C578.794,506.73 572.371,508.067 565.149,508.067 C557.926,508.067 551.503,506.735 546.984,504.677 C542.238,502.517 540.482,500.04 540.482,498.2 L540.482,491.777 C541.819,492.773 543.343,493.642 544.942,494.367 C550.24,496.769 557.389,498.2 565.149,498.2 C572.909,498.2 580.057,496.774 585.356,494.367 C586.954,493.642 588.479,492.773 589.815,491.777 z" fill="#FFFFFF"/>
        <path d="M546.984,447.323 C551.503,445.27 557.926,443.933 565.149,443.933 C572.371,443.933 578.794,445.265 583.313,447.323 C588.059,449.483 589.815,451.96 589.815,453.8 C589.815,455.645 588.059,458.117 583.313,460.277 C578.794,462.33 572.371,463.667 565.149,463.667 C557.926,463.667 551.503,462.335 546.984,460.277 C542.238,458.117 540.482,455.64 540.482,453.8 C540.482,451.955 542.238,449.483 546.984,447.323 z M589.815,462.177 L589.815,468.6 C589.815,470.445 588.059,472.917 583.313,475.077 C578.794,477.13 572.371,478.467 565.149,478.467 C557.926,478.467 551.503,477.135 546.984,475.077 C542.238,472.917 540.482,470.44 540.482,468.6 L540.482,462.177 C541.819,463.173 543.343,464.042 544.942,464.767 C550.24,467.174 557.389,468.6 565.149,468.6 C572.909,468.6 580.057,467.174 585.356,464.767 C586.93,464.064 588.425,463.196 589.815,462.177 z M594.749,453.8 C594.749,448.832 590.432,445.142 585.356,442.833 C580.057,440.426 572.909,439 565.149,439 C557.389,439 550.24,440.426 544.942,442.833 C539.865,445.142 535.549,448.832 535.549,453.8 L535.549,498.2 C535.549,503.168 539.865,506.858 544.942,509.167 C550.24,511.569 557.389,513 565.149,513 C572.909,513 580.057,511.574 585.356,509.167 C590.432,506.858 594.749,503.168 594.749,498.2 L594.749,453.8 z M589.815,476.977 L589.815,483.4 C589.815,485.245 588.059,487.717 583.313,489.877 C578.794,491.93 572.371,493.267 565.149,493.267 C557.926,493.267 551.503,491.935 546.984,489.877 C542.238,487.717 540.482,485.24 540.482,483.4 L540.482,476.977 C541.819,477.973 543.343,478.842 544.942,479.567 C550.24,481.969 557.389,483.4 565.149,483.4 C572.909,483.4 580.057,481.974 585.356,479.567 C586.93,478.864 588.425,477.996 589.815,476.977 z M589.815,491.777 L589.815,498.2 C589.815,500.045 588.059,502.517 583.313,504.677 C578.794,506.73 572.371,508.067 565.149,508.067 C557.926,508.067 551.503,506.735 546.984,504.677 C542.238,502.517 540.482,500.04 540.482,498.2 L540.482,491.777 C541.819,492.773 543.343,493.642 544.942,494.367 C550.24,496.769 557.389,498.2 565.149,498.2 C572.909,498.2 580.057,496.774 585.356,494.367 C586.954,493.642 588.479,492.773 589.815,491.777 z" fill-opacity="0" stroke="#00A8AA" stroke-width="3"/>
      </g>
      <g>
        <g>
          <path d="M574.749,494 L599.749,494 L599.749,519 L574.749,519 L574.749,494 z" fill="#FFFFFF"/>
          <path d="M574.749,494 L599.749,494 L599.749,519 L574.749,519 L574.749,494 z" fill-opacity="0" stroke="#00A8AA" stroke-width="1"/>
        </g>
        <g>
          <path d="M578.058,497.309 L579.207,497.309 L579.207,514.542 L596.44,514.542 L596.44,515.691 L578.058,515.691 L578.058,497.309 z M595.081,500.885 C595.199,500.982 595.274,501.121 595.289,501.273 C595.304,501.425 595.258,501.576 595.161,501.694 L589.991,508.013 C589.888,508.139 589.738,508.215 589.576,508.223 C589.414,508.231 589.256,508.17 589.141,508.056 L586.169,505.083 L581.969,510.859 C581.778,511.102 581.429,511.15 581.179,510.968 C580.929,510.787 580.868,510.44 581.04,510.183 L585.636,503.864 C585.734,503.728 585.888,503.642 586.055,503.629 C586.223,503.616 586.388,503.677 586.507,503.796 L589.504,506.794 L594.272,500.966 C594.369,500.848 594.508,500.773 594.66,500.758 C594.812,500.743 594.963,500.789 595.081,500.885 z" fill="#FFFFFF"/>
          <path d="M578.058,497.309 L579.207,497.309 L579.207,514.542 L596.44,514.542 L596.44,515.691 L578.058,515.691 L578.058,497.309 z M595.081,500.885 C595.199,500.982 595.274,501.121 595.289,501.273 C595.304,501.425 595.258,501.576 595.161,501.694 L589.991,508.013 C589.888,508.139 589.738,508.215 589.576,508.223 C589.414,508.231 589.256,508.17 589.141,508.056 L586.169,505.083 L581.969,510.859 C581.778,511.102 581.429,511.15 581.179,510.968 C580.929,510.787 580.868,510.44 581.04,510.183 L585.636,503.864 C585.734,503.728 585.888,503.642 586.055,503.629 C586.223,503.616 586.388,503.677 586.507,503.796 L589.504,506.794 L594.272,500.966 C594.369,500.848 594.508,500.773 594.66,500.758 C594.812,500.743 594.963,500.789 595.081,500.885 z" fill-opacity="0" stroke="#00A8AA" stroke-width="1"/>
        </g>
      </g>
    </g>
    <g>
      <g>
        <path d="M680.349,498.3 C681.619,498.3 682.649,497.27 682.649,496 C682.649,494.73 681.619,493.7 680.349,493.7 C679.078,493.7 678.049,494.73 678.049,496 C678.049,497.27 679.078,498.3 680.349,498.3 z M673.449,496 C673.449,497.27 672.419,498.3 671.149,498.3 C669.878,498.3 668.849,497.27 668.849,496 C668.849,494.73 669.878,493.7 671.149,493.7 C672.419,493.7 673.449,494.73 673.449,496 z" fill="#FFFFFF"/>
        <path d="M680.349,498.3 C681.619,498.3 682.649,497.27 682.649,496 C682.649,494.73 681.619,493.7 680.349,493.7 C679.078,493.7 678.049,494.73 678.049,496 C678.049,497.27 679.078,498.3 680.349,498.3 z M673.449,496 C673.449,497.27 672.419,498.3 671.149,498.3 C669.878,498.3 668.849,497.27 668.849,496 C668.849,494.73 669.878,493.7 671.149,493.7 C672.419,493.7 673.449,494.73 673.449,496 z" fill-opacity="0" stroke="#00A8AA" stroke-width="2"/>
      </g>
      <g>
        <path d="M733.249,498.3 C733.249,503.381 729.13,507.5 724.049,507.5 L668.849,507.5 C663.768,507.5 659.649,503.381 659.649,498.3 L659.649,491.446 C659.649,489.523 660.132,487.628 661.052,485.94 L672.423,465.097 C673.632,462.88 675.956,461.5 678.481,461.5 L714.416,461.5 C716.942,461.5 719.266,462.88 720.475,465.097 L731.846,485.935 C732.766,487.628 733.249,489.523 733.249,491.446 L733.249,498.3 z M676.462,467.296 L666.972,484.698 C667.579,484.564 668.205,484.5 668.849,484.5 L724.049,484.5 C724.693,484.5 725.318,484.564 725.926,484.693 L716.436,467.296 C716.032,466.558 715.258,466.099 714.416,466.1 L678.481,466.1 C677.638,466.098 676.862,466.557 676.457,467.296 z M664.249,493.7 L664.249,498.3 C664.249,500.841 666.308,502.9 668.849,502.9 L724.049,502.9 C726.589,502.9 728.649,500.841 728.649,498.3 L728.649,493.7 C728.649,491.159 726.589,489.1 724.049,489.1 L668.849,489.1 C666.308,489.1 664.249,491.159 664.249,493.7 z" fill="#FFFFFF"/>
        <path d="M733.249,498.3 C733.249,503.381 729.13,507.5 724.049,507.5 L668.849,507.5 C663.768,507.5 659.649,503.381 659.649,498.3 L659.649,491.446 C659.649,489.523 660.132,487.628 661.052,485.94 L672.423,465.097 C673.632,462.88 675.956,461.5 678.481,461.5 L714.416,461.5 C716.942,461.5 719.266,462.88 720.475,465.097 L731.846,485.935 C732.766,487.628 733.249,489.523 733.249,491.446 L733.249,498.3 z M676.462,467.296 L666.972,484.698 C667.579,484.564 668.205,484.5 668.849,484.5 L724.049,484.5 C724.693,484.5 725.318,484.564 725.926,484.693 L716.436,467.296 C716.032,466.558 715.258,466.099 714.416,466.1 L678.481,466.1 C677.638,466.098 676.862,466.557 676.457,467.296 z M664.249,493.7 L664.249,498.3 C664.249,500.841 666.308,502.9 668.849,502.9 L724.049,502.9 C726.589,502.9 728.649,500.841 728.649,498.3 L728.649,493.7 C728.649,491.159 726.589,489.1 724.049,489.1 L668.849,489.1 C666.308,489.1 664.249,491.159 664.249,493.7 z" fill-opacity="0" stroke="#00A8AA" stroke-width="2"/>
      </g>
    </g>
    <g>
      <path d="M218.408,189 L335.192,189 C344.088,189 351.3,196.266 351.3,205.229 L351.3,314.771 C351.3,323.734 344.088,331 335.192,331 L218.408,331 C209.512,331 202.3,323.734 202.3,314.771 L202.3,205.229 C202.3,196.266 209.512,189 218.408,189 z" fill="#FFFFFF"/>
      <path d="M218.408,189 L335.192,189 C344.088,189 351.3,196.266 351.3,205.229 L351.3,314.771 C351.3,323.734 344.088,331 335.192,331 L218.408,331 C209.512,331 202.3,323.734 202.3,314.771 L202.3,205.229 C202.3,196.266 209.512,189 218.408,189 z" fill-opacity="0" stroke="#00A8AA" stroke-width="3"/>
    </g>
    <path d="M297.301,227.999 C297.299,238.604 289.393,247.544 278.867,248.842 L283.86,230.209 C284.234,228.935 284.279,227.588 283.991,226.292 C283.701,224.974 283.075,223.753 282.172,222.749 L296.639,222.749 C297.08,224.464 297.302,226.228 297.301,227.999 z M255.299,227.999 C255.299,239.523 264.585,248.894 276.108,248.999 L279.852,235.031 C279.251,235.335 278.613,235.56 277.954,235.701 C276.424,236.033 274.83,235.898 273.378,235.315 C272.346,234.903 271.412,234.277 270.64,233.477 L256.961,219.798 C255.861,222.392 255.296,225.181 255.299,227.999 z M268.435,227.56 L258.208,217.33 C262.271,210.447 269.887,206.465 277.858,207.058 C285.829,207.651 292.773,212.715 295.773,220.123 L276.473,220.123 C275.344,220.096 274.223,220.314 273.187,220.761 C270.436,221.936 268.593,224.573 268.435,227.56 z M276.3,233.249 C279.2,233.249 281.55,230.898 281.55,227.999 C281.55,225.099 279.2,222.749 276.3,222.749 C273.4,222.749 271.05,225.099 271.05,227.999 C271.05,230.898 273.4,233.249 276.3,233.249 z" fill="#00A8AA"/>
    <path d="M249.743,278.943 C251.148,279.668 252.946,281.967 253.828,284.096 C255.113,287.342 255.567,290.858 255.148,294.324 L255.124,294.526 C255.104,294.723 255.081,294.919 255.056,295.114 C253.252,305.522 243.789,312.822 233.264,311.926 C222.739,311.029 214.647,302.233 214.63,291.671 L214.63,291.566 C214.672,290.613 214.774,289.665 214.929,288.726 C214.955,288.531 215.126,287.623 215.165,287.442 L215.191,287.308 C215.686,285.092 216.615,282.996 217.924,281.14 C218.493,280.326 219.131,279.565 219.827,278.857 C220.438,278.232 221.105,277.66 221.816,277.151 C222.031,277.009 222.26,276.888 222.499,276.791 C222.451,277.494 222.394,280.867 223.202,281.891 L223.21,281.891 C224.565,280.302 226.234,279.013 228.113,278.103 C227.686,279.737 227.705,281.456 228.168,283.08 C228.352,283.203 228.528,283.337 228.693,283.479 C228.974,283.715 229.286,284.022 229.885,284.615 L230.063,284.789 L230.087,284.812 C230.262,284.983 230.448,285.141 230.646,285.285 C231.651,286.038 233.121,286.762 234.074,287.23 C234.601,287.492 234.971,287.67 235.016,287.736 L235.027,287.757 C234.995,288.264 233.202,290.009 232.578,290.009 C226.788,290.009 225.848,293.513 225.848,293.513 C226.076,296.13 227.722,298.34 229.83,299.7 C230.199,299.936 230.584,300.147 230.982,300.332 C231.181,300.421 231.381,300.503 231.58,300.579 C232.433,300.881 233.326,301.051 234.231,301.088 C242.218,301.463 245.137,293.728 242.444,288.634 L242.444,288.631 C241.964,287.727 241.312,286.924 240.525,286.269 C240.065,285.888 239.562,285.562 239.027,285.298 L239.019,285.292 C240.746,285.068 242.495,285.493 243.927,286.484 C242.106,283.274 238.704,281.288 235.013,281.279 C234.809,281.279 234.612,281.292 234.41,281.305 L234.3,281.313 L234.3,281.311 L234.294,281.311 C233.583,281.359 232.88,281.483 232.194,281.678 C231.913,281.393 231.621,281.118 231.32,280.854 C231.153,280.712 230.978,280.578 230.796,280.455 C230.7,280.124 230.623,279.789 230.565,279.45 C231.705,279.03 232.9,278.774 234.113,278.691 L234.244,278.683 C234.381,278.673 234.572,278.657 234.782,278.652 C235.601,275.804 237.536,272.211 241.308,270.003 L241.3,270.017 L241.308,270.014 L241.313,270.009 L241.318,270.009 L241.323,270.003 C241.336,270 241.35,270 241.363,270.003 C241.375,270.006 241.386,270.012 241.394,270.022 C241.528,270.46 241.709,270.883 241.935,271.282 C242.092,271.552 242.255,271.807 242.415,272.061 C243.701,274.093 245.1,275.681 246.465,277.227 C248.489,279.521 250.434,281.728 251.809,285.153 L251.807,285.119 C251.442,282.966 250.746,280.883 249.743,278.943 z" fill="#00A8AA"/>
    <path d="M318.3,312 C329.898,312 339.3,302.598 339.3,291 C339.3,279.403 329.898,270.001 318.3,270.001 C306.702,270.001 297.301,279.403 297.301,291 C297.301,302.598 306.702,312 318.3,312 z M318.956,273.282 L318.956,277.219 C318.956,277.582 318.663,277.876 318.3,277.876 C317.938,277.876 317.644,277.582 317.644,277.219 L317.644,273.282 C317.644,272.919 317.938,272.626 318.3,272.626 C318.663,272.626 318.956,272.919 318.956,273.282 z M318.956,304.781 L318.956,308.719 C318.956,309.081 318.663,309.375 318.3,309.375 C317.938,309.375 317.644,309.081 317.644,308.719 L317.644,304.781 C317.644,304.419 317.938,304.125 318.3,304.125 C318.663,304.125 318.956,304.419 318.956,304.781 z M309.113,275.088 C309.264,275 309.443,274.976 309.611,275.021 C309.78,275.066 309.923,275.176 310.011,275.327 L311.979,278.739 C312.161,279.054 312.052,279.456 311.738,279.637 C311.423,279.818 311.021,279.71 310.84,279.395 L308.871,275.983 C308.691,275.669 308.799,275.269 309.113,275.088 z M324.863,302.366 C325.177,302.186 325.577,302.294 325.758,302.608 L327.726,306.018 C327.861,306.221 327.871,306.482 327.754,306.696 C327.636,306.909 327.41,307.04 327.167,307.036 C326.923,307.031 326.702,306.892 326.592,306.674 L324.624,303.262 C324.445,302.949 324.552,302.551 324.863,302.369 z M303.285,281.572 L306.693,283.54 C307.007,283.721 307.115,284.123 306.934,284.438 C306.753,284.753 306.351,284.861 306.036,284.679 L302.627,282.711 C302.312,282.53 302.204,282.128 302.385,281.813 C302.566,281.498 302.968,281.39 303.283,281.572 z M330.564,297.321 L333.974,299.29 C334.288,299.471 334.397,299.873 334.215,300.188 C334.034,300.502 333.632,300.61 333.318,300.429 L329.905,298.46 C329.591,298.279 329.482,297.877 329.664,297.563 C329.845,297.248 330.247,297.14 330.561,297.321 z M299.926,291 C299.926,290.638 300.219,290.344 300.582,290.344 L304.519,290.344 C304.882,290.344 305.175,290.638 305.175,291 C305.175,291.363 304.882,291.657 304.519,291.657 L300.582,291.657 C300.219,291.657 299.926,291.363 299.926,291 z M331.425,291 C331.425,290.638 331.719,290.344 332.081,290.344 L336.019,290.344 C336.381,290.344 336.675,290.638 336.675,291 C336.675,291.363 336.381,291.657 336.019,291.657 L332.081,291.657 C331.719,291.657 331.425,291.363 331.425,291 z M302.629,299.293 L306.036,297.324 C306.347,297.168 306.725,297.281 306.899,297.582 C307.073,297.882 306.982,298.266 306.693,298.458 L303.283,300.427 C302.972,300.582 302.594,300.469 302.42,300.169 C302.246,299.868 302.337,299.484 302.627,299.293 z M329.908,283.543 L333.318,281.574 C333.521,281.455 333.772,281.454 333.976,281.571 C334.181,281.689 334.306,281.906 334.306,282.142 C334.305,282.377 334.179,282.594 333.974,282.711 L330.561,284.679 C330.247,284.861 329.845,284.753 329.664,284.438 C329.482,284.123 329.591,283.721 329.905,283.54 z M309.113,306.91 C308.799,306.729 308.691,306.329 308.871,306.015 L310.84,302.603 C311.021,302.288 311.423,302.18 311.738,302.361 C312.052,302.542 312.161,302.944 311.979,303.259 L310.011,306.671 C309.923,306.822 309.78,306.932 309.611,306.977 C309.443,307.022 309.264,306.998 309.113,306.91 z M324.863,279.632 C324.712,279.544 324.602,279.401 324.557,279.232 C324.512,279.064 324.536,278.885 324.624,278.734 L326.592,275.324 C326.702,275.106 326.923,274.967 327.167,274.962 C327.41,274.958 327.636,275.089 327.754,275.302 C327.871,275.516 327.861,275.777 327.726,275.98 L325.758,279.393 C325.575,279.704 325.175,279.81 324.863,279.629 z M314.347,273.715 L314.688,274.983 C314.783,275.333 314.575,275.693 314.225,275.787 C313.875,275.882 313.515,275.674 313.42,275.324 L313.079,274.056 C312.985,273.706 313.192,273.346 313.543,273.252 C313.893,273.158 314.253,273.365 314.347,273.715 z M323.183,306.677 L323.524,307.944 C323.618,308.295 323.411,308.655 323.061,308.749 C322.71,308.843 322.35,308.636 322.256,308.286 L321.915,307.018 C321.821,306.668 322.028,306.308 322.378,306.213 C322.728,306.119 323.088,306.327 323.183,306.677 z M305.307,278.007 C305.43,277.883 305.597,277.814 305.771,277.814 C305.946,277.814 306.113,277.883 306.236,278.007 L307.163,278.936 C307.395,279.196 307.384,279.591 307.137,279.837 C306.891,280.084 306.496,280.095 306.236,279.863 L305.307,278.936 C305.183,278.813 305.114,278.646 305.114,278.471 C305.114,278.297 305.183,278.13 305.307,278.007 z M329.438,302.138 C329.694,301.883 330.108,301.883 330.365,302.138 L331.294,303.065 C331.55,303.321 331.55,303.737 331.294,303.994 C331.037,304.25 330.621,304.25 330.365,303.994 L329.438,303.065 C329.183,302.809 329.183,302.394 329.438,302.138 z M301.356,285.777 L302.624,286.118 C302.974,286.212 303.182,286.572 303.087,286.922 C302.993,287.273 302.633,287.48 302.283,287.386 L301.015,287.045 C300.777,286.994 300.586,286.817 300.519,286.583 C300.452,286.349 300.52,286.098 300.696,285.929 C300.871,285.761 301.125,285.703 301.356,285.779 z M334.318,294.61 L335.586,294.951 C335.936,295.045 336.143,295.405 336.049,295.755 C335.955,296.106 335.594,296.313 335.244,296.219 L333.976,295.878 C333.626,295.783 333.419,295.423 333.513,295.073 C333.607,294.723 333.968,294.515 334.318,294.61 z M300.553,295.754 C300.459,295.405 300.666,295.046 301.015,294.951 L302.283,294.61 C302.633,294.515 302.993,294.723 303.087,295.073 C303.182,295.423 302.974,295.783 302.624,295.878 L301.356,296.219 C301.006,296.312 300.646,296.104 300.553,295.754 z M333.514,286.921 C333.421,286.572 333.627,286.213 333.976,286.118 L335.244,285.777 C335.594,285.682 335.955,285.89 336.049,286.24 C336.143,286.59 335.936,286.95 335.586,287.045 L334.318,287.386 C333.968,287.479 333.608,287.271 333.514,286.921 z M305.294,303.978 C305.038,303.709 305.006,303.297 305.217,302.991 L315.45,288.312 C315.494,288.249 315.549,288.194 315.612,288.15 L330.317,277.954 C330.607,277.706 331.039,277.723 331.308,277.992 C331.578,278.262 331.595,278.694 331.346,278.983 L321.151,293.688 C321.107,293.752 321.052,293.807 320.988,293.851 L306.309,304.083 C305.998,304.3 305.575,304.262 305.307,303.994 L305.294,303.978 z M313.544,308.748 C313.195,308.653 312.988,308.294 313.082,307.944 L313.42,306.677 C313.515,306.327 313.875,306.119 314.225,306.213 C314.575,306.308 314.783,306.668 314.688,307.018 L314.347,308.286 C314.252,308.635 313.893,308.841 313.544,308.748 z M322.377,275.786 C322.027,275.693 321.819,275.333 321.912,274.983 L322.253,273.715 C322.348,273.365 322.708,273.158 323.058,273.252 C323.408,273.346 323.616,273.706 323.521,274.056 L323.18,275.324 C323.085,275.673 322.726,275.88 322.377,275.786 z" fill="#00A8AA"/>
    <text transform="matrix(1, 0, 0, 1, 102.541, 378)">
      <tspan x="-65.541" y="-19" font-family="HelveticaNeue-Medium" font-size="21" fill="#006CAA">HPC user</tspan>
      <tspan x="-65.541" y="7" font-family="HelveticaNeue-Medium" font-size="21" fill="#006CAA">Support staff</tspan>
      <tspan x="-65.541" y="33" font-family="HelveticaNeue-Medium" font-size="21" fill="#006CAA">Administrator</tspan>
    </text>
    <text transform="matrix(1, 0, 0, 1, 250.135, 353.5)">
      <tspan x="-41.335" y="5.5" font-family="HelveticaNeue-Medium" font-size="21" fill="#00A8AA">Web UI</tspan>
    </text>
    <g>
      <path d="M367.9,259.5 L470.1,259.5" fill-opacity="0" stroke="#00A8AA" stroke-width="3"/>
      <path d="M367.9,259.5 L370.7,255.3 L359.5,259.5 L370.7,263.7 z" fill="#00A8AA" fill-opacity="1" stroke="#00A8AA" stroke-width="3" stroke-opacity="1"/>
      <path d="M470.1,259.5 L467.3,263.7 L478.5,259.5 L467.3,255.3 z" fill="#00A8AA" fill-opacity="1" stroke="#00A8AA" stroke-width="3" stroke-opacity="1"/>
    </g>
    <text transform="matrix(1, 0, 0, 1, 568.571, 259.5)">
      <tspan x="-70.835" y="8" font-family="HelveticaNeue-Medium" font-size="24" fill="#00A8AA">cc-backend</tspan>
    </text>
    <text transform="matrix(1, 0, 0, 1, 422.5, 279.501)">
      <tspan x="-41.335" y="3.5" font-family="HelveticaNeue-Medium" font-size="18" fill="#00A8AA">GraphQL</tspan>
    </text>
    <g>
      <path d="M446.062,424.29 L487.922,349.21" fill-opacity="0" stroke="#00A8AA" stroke-width="3"/>
      <path d="M446.062,424.29 L443.757,419.799 L441.971,431.627 L451.094,423.89 z" fill="#00A8AA" fill-opacity="1" stroke="#00A8AA" stroke-width="3" stroke-opacity="1"/>
      <path d="M487.922,349.21 L490.227,353.701 L492.013,341.873 L482.891,349.61 z" fill="#00A8AA" fill-opacity="1" stroke="#00A8AA" stroke-width="3" stroke-opacity="1"/>
    </g>
    <g>
      <path d="M565.484,430.5 L566.523,352.899" fill-opacity="0" stroke="#00A8AA" stroke-width="3"/>
      <path d="M566.523,352.899 L570.685,355.755 L566.635,344.5 L562.286,355.643 z" fill="#00A8AA" fill-opacity="1" stroke="#00A8AA" stroke-width="3" stroke-opacity="1"/>
    </g>
    <g>
      <path d="M686.018,424.32 L642.629,347.68" fill-opacity="0" stroke="#00A8AA" stroke-width="3"/>
      <path d="M686.018,424.32 L680.983,423.953 L690.156,431.63 L688.293,419.814 z" fill="#00A8AA" fill-opacity="1" stroke="#00A8AA" stroke-width="3" stroke-opacity="1"/>
      <path d="M642.629,347.68 L647.663,348.047 L638.49,340.37 L640.353,352.186 z" fill="#00A8AA" fill-opacity="1" stroke="#00A8AA" stroke-width="3" stroke-opacity="1"/>
    </g>
    <text transform="matrix(1, 0, 0, 1, 433.549, 538.5)">
      <tspan x="-17.838" y="3.5" font-family="HelveticaNeue-Medium" font-size="18" fill="#00A8AA">SQL</tspan>
    </text>
    <text transform="matrix(1, 0, 0, 1, 565.567, 547)">
      <tspan x="-26.343" y="-5" font-family="HelveticaNeue-Medium" font-size="18" fill="#00A8AA">Metric</tspan>
      <tspan x="-22.176" y="18" font-family="HelveticaNeue-Medium" font-size="18" fill="#00A8AA">Store</tspan>
    </text>
    <text transform="matrix(1, 0, 0, 1, 695.949, 547)">
      <tspan x="-15.669" y="-5" font-family="HelveticaNeue-Medium" font-size="18" fill="#00A8AA">Job</tspan>
      <tspan x="-31.023" y="18" font-family="HelveticaNeue-Medium" font-size="18" fill="#00A8AA">Archive</tspan>
    </text>
    <text transform="matrix(1, 0, 0, 1, 420.5, 244.5)">
      <tspan x="-23.175" y="3.5" font-family="HelveticaNeue-Medium" font-size="18" fill="#00A8AA">HTTP</tspan>
    </text>
    <g>
      <path d="M508.229,14.5 L622.268,14.5 C630.955,14.5 637.998,19.566 637.998,25.814 L637.998,102.186 C637.998,108.434 630.955,113.5 622.268,113.5 L508.229,113.5 C499.542,113.5 492.5,108.434 492.5,102.186 L492.5,25.814 C492.5,19.566 499.542,14.5 508.229,14.5 z" fill="#FFFFFF"/>
      <path d="M508.229,14.5 L622.268,14.5 C630.955,14.5 637.998,19.566 637.998,25.814 L637.998,102.186 C637.998,108.434 630.955,113.5 622.268,113.5 L508.229,113.5 C499.542,113.5 492.5,108.434 492.5,102.186 L492.5,25.814 C492.5,19.566 499.542,14.5 508.229,14.5 z" fill-opacity="0" stroke="#006CAA" stroke-width="3"/>
    </g>
    <text transform="matrix(1, 0, 0, 1, 565.567, 63.5)">
      <tspan x="-46.683" y="-19" font-family="HelveticaNeue-Medium" font-size="21" fill="#006CAA">Batch job </tspan>
      <tspan x="-47.66" y="7" font-family="HelveticaNeue-Medium" font-size="21" fill="#006CAA">scheduler </tspan>
      <tspan x="-37.537" y="33" font-family="HelveticaNeue-Medium" font-size="21" fill="#006CAA">adapter</tspan>
    </text>
    <g>
      <path d="M565.446,171.1 L565.287,132.4" fill-opacity="0" stroke="#00A8AA" stroke-width="3"/>
      <path d="M565.446,171.1 L561.234,168.317 L565.48,179.5 L569.634,168.283 z" fill="#00A8AA" fill-opacity="1" stroke="#00A8AA" stroke-width="3" stroke-opacity="1"/>
      <path d="M565.287,132.4 L569.499,135.183 L565.253,124 L561.099,135.217 z" fill="#00A8AA" fill-opacity="1" stroke="#00A8AA" stroke-width="3" stroke-opacity="1"/>
    </g>
    <text transform="matrix(1, 0, 0, 1, 610.368, 151)">
      <tspan x="-29.038" y="-5" font-family="HelveticaNeue-Medium" font-size="18" fill="#00A8AA">REST</tspan>
      <tspan x="-29.038" y="18" font-family="HelveticaNeue-Medium" font-size="18" fill="#00A8AA">API</tspan>
    </text>
    <g>
      <path d="M381.5,647 C383.295,647 384.75,648.455 384.75,650.25 L384.75,653.5 C384.75,655.295 383.295,656.75 381.5,656.75 L342.5,656.75 C340.705,656.75 339.25,655.295 339.25,653.5 L339.25,650.25 C339.25,648.455 340.705,647 342.5,647 L381.5,647 z M342.5,643.75 C338.91,643.75 336,646.66 336,650.25 L336,653.5 C336,657.09 338.91,660 342.5,660 L381.5,660 C385.09,660 388,657.09 388,653.5 L388,650.25 C388,646.66 385.09,643.75 381.5,643.75 L342.5,643.75 z" fill="#00A8AA"/>
      <path d="M352.25,651.875 C352.25,652.772 351.522,653.5 350.625,653.5 C349.728,653.5 349,652.772 349,651.875 C349,650.978 349.728,650.25 350.625,650.25 C351.522,650.25 352.25,650.978 352.25,651.875 z M345.75,651.875 C345.75,652.772 345.022,653.5 344.125,653.5 C343.228,653.5 342.5,652.772 342.5,651.875 C342.5,650.978 343.228,650.25 344.125,650.25 C345.022,650.25 345.75,650.978 345.75,651.875 z M381.5,624.25 C383.295,624.25 384.75,625.705 384.75,627.5 L384.75,630.75 C384.75,632.545 383.295,634 381.5,634 L342.5,634 C340.705,634 339.25,632.545 339.25,630.75 L339.25,627.5 C339.25,625.705 340.705,624.25 342.5,624.25 L381.5,624.25 z M342.5,621 C338.91,621 336,623.91 336,627.5 L336,630.75 C336,634.34 338.91,637.25 342.5,637.25 L381.5,637.25 C385.09,637.25 388,634.34 388,630.75 L388,627.5 C388,623.91 385.09,621 381.5,621 L342.5,621 z" fill="#00A8AA"/>
      <path d="M352.25,629.125 C352.25,630.022 351.522,630.75 350.625,630.75 C349.728,630.75 349,630.022 349,629.125 C349,628.228 349.728,627.5 350.625,627.5 C351.522,627.5 352.25,628.228 352.25,629.125 z M345.75,629.125 C345.75,630.022 345.022,630.75 344.125,630.75 C343.228,630.75 342.5,630.022 342.5,629.125 C342.5,628.228 343.228,627.5 344.125,627.5 C345.022,627.5 345.75,628.228 345.75,629.125 z" fill="#00A8AA"/>
    </g>
    <text transform="matrix(1, 0, 0, 1, 542.815, 679.5)">
      <tspan x="-204.514" y="4.5" font-family="HelveticaNeue-Medium" font-size="21" fill="#00A8AA">Node agent running on every node</tspan>
    </text>
    <g>
      <path d="M464.484,647 C466.279,647 467.734,648.455 467.734,650.25 L467.734,653.5 C467.734,655.295 466.279,656.75 464.484,656.75 L425.484,656.75 C423.689,656.75 422.234,655.295 422.234,653.5 L422.234,650.25 C422.234,648.455 423.689,647 425.484,647 L464.484,647 z M425.484,643.75 C421.894,643.75 418.984,646.66 418.984,650.25 L418.984,653.5 C418.984,657.09 421.894,660 425.484,660 L464.484,660 C468.074,660 470.984,657.09 470.984,653.5 L470.984,650.25 C470.984,646.66 468.074,643.75 464.484,643.75 L425.484,643.75 z" fill="#00A8AA"/>
      <path d="M435.234,651.875 C435.234,652.772 434.507,653.5 433.609,653.5 C432.712,653.5 431.984,652.772 431.984,651.875 C431.984,650.978 432.712,650.25 433.609,650.25 C434.507,650.25 435.234,650.978 435.234,651.875 z M428.734,651.875 C428.734,652.772 428.007,653.5 427.109,653.5 C426.212,653.5 425.484,652.772 425.484,651.875 C425.484,650.978 426.212,650.25 427.109,650.25 C428.007,650.25 428.734,650.978 428.734,651.875 z M464.484,624.25 C466.279,624.25 467.734,625.705 467.734,627.5 L467.734,630.75 C467.734,632.545 466.279,634 464.484,634 L425.484,634 C423.689,634 422.234,632.545 422.234,630.75 L422.234,627.5 C422.234,625.705 423.689,624.25 425.484,624.25 L464.484,624.25 z M425.484,621 C421.894,621 418.984,623.91 418.984,627.5 L418.984,630.75 C418.984,634.34 421.894,637.25 425.484,637.25 L464.484,637.25 C468.074,637.25 470.984,634.34 470.984,630.75 L470.984,627.5 C470.984,623.91 468.074,621 464.484,621 L425.484,621 z" fill="#00A8AA"/>
      <path d="M435.234,629.125 C435.234,630.022 434.507,630.75 433.609,630.75 C432.712,630.75 431.984,630.022 431.984,629.125 C431.984,628.228 432.712,627.5 433.609,627.5 C434.507,627.5 435.234,628.228 435.234,629.125 z M428.734,629.125 C428.734,630.022 428.007,630.75 427.109,630.75 C426.212,630.75 425.484,630.022 425.484,629.125 C425.484,628.228 426.212,627.5 427.109,627.5 C428.007,627.5 428.734,628.228 428.734,629.125 z" fill="#00A8AA"/>
    </g>
    <g>
      <path d="M550.335,647 C552.13,647 553.585,648.455 553.585,650.25 L553.585,653.5 C553.585,655.295 552.13,656.75 550.335,656.75 L511.335,656.75 C509.54,656.75 508.085,655.295 508.085,653.5 L508.085,650.25 C508.085,648.455 509.54,647 511.335,647 L550.335,647 z M511.335,643.75 C507.745,643.75 504.835,646.66 504.835,650.25 L504.835,653.5 C504.835,657.09 507.745,660 511.335,660 L550.335,660 C553.925,660 556.835,657.09 556.835,653.5 L556.835,650.25 C556.835,646.66 553.925,643.75 550.335,643.75 L511.335,643.75 z" fill="#00A8AA"/>
      <path d="M521.085,651.875 C521.085,652.772 520.358,653.5 519.46,653.5 C518.563,653.5 517.835,652.772 517.835,651.875 C517.835,650.978 518.563,650.25 519.46,650.25 C520.358,650.25 521.085,650.978 521.085,651.875 z M514.585,651.875 C514.585,652.772 513.858,653.5 512.96,653.5 C512.063,653.5 511.335,652.772 511.335,651.875 C511.335,650.978 512.063,650.25 512.96,650.25 C513.858,650.25 514.585,650.978 514.585,651.875 z M550.335,624.25 C552.13,624.25 553.585,625.705 553.585,627.5 L553.585,630.75 C553.585,632.545 552.13,634 550.335,634 L511.335,634 C509.54,634 508.085,632.545 508.085,630.75 L508.085,627.5 C508.085,625.705 509.54,624.25 511.335,624.25 L550.335,624.25 z M511.335,621 C507.745,621 504.835,623.91 504.835,627.5 L504.835,630.75 C504.835,634.34 507.745,637.25 511.335,637.25 L550.335,637.25 C553.925,637.25 556.835,634.34 556.835,630.75 L556.835,627.5 C556.835,623.91 553.925,621 550.335,621 L511.335,621 z" fill="#00A8AA"/>
      <path d="M521.085,629.125 C521.085,630.022 520.358,630.75 519.46,630.75 C518.563,630.75 517.835,630.022 517.835,629.125 C517.835,628.228 518.563,627.5 519.46,627.5 C520.358,627.5 521.085,628.228 521.085,629.125 z M514.585,629.125 C514.585,630.022 513.858,630.75 512.96,630.75 C512.063,630.75 511.335,630.022 511.335,629.125 C511.335,628.228 512.063,627.5 512.96,627.5 C513.858,627.5 514.585,628.228 514.585,629.125 z" fill="#00A8AA"/>
    </g>
    <g>
      <path d="M634.5,647 C636.295,647 637.75,648.455 637.75,650.25 L637.75,653.5 C637.75,655.295 636.295,656.75 634.5,656.75 L595.5,656.75 C593.705,656.75 592.25,655.295 592.25,653.5 L592.25,650.25 C592.25,648.455 593.705,647 595.5,647 L634.5,647 z M595.5,643.75 C591.91,643.75 589,646.66 589,650.25 L589,653.5 C589,657.09 591.91,660 595.5,660 L634.5,660 C638.09,660 641,657.09 641,653.5 L641,650.25 C641,646.66 638.09,643.75 634.5,643.75 L595.5,643.75 z" fill="#00A8AA"/>
      <path d="M605.25,651.875 C605.25,652.772 604.522,653.5 603.625,653.5 C602.728,653.5 602,652.772 602,651.875 C602,650.978 602.728,650.25 603.625,650.25 C604.522,650.25 605.25,650.978 605.25,651.875 z M598.75,651.875 C598.75,652.772 598.022,653.5 597.125,653.5 C596.228,653.5 595.5,652.772 595.5,651.875 C595.5,650.978 596.228,650.25 597.125,650.25 C598.022,650.25 598.75,650.978 598.75,651.875 z M634.5,624.25 C636.295,624.25 637.75,625.705 637.75,627.5 L637.75,630.75 C637.75,632.545 636.295,634 634.5,634 L595.5,634 C593.705,634 592.25,632.545 592.25,630.75 L592.25,627.5 C592.25,625.705 593.705,624.25 595.5,624.25 L634.5,624.25 z M595.5,621 C591.91,621 589,623.91 589,627.5 L589,630.75 C589,634.34 591.91,637.25 595.5,637.25 L634.5,637.25 C638.09,637.25 641,634.34 641,630.75 L641,627.5 C641,623.91 638.09,621 634.5,621 L595.5,621 z" fill="#00A8AA"/>
      <path d="M605.25,629.125 C605.25,630.022 604.522,630.75 603.625,630.75 C602.728,630.75 602,630.022 602,629.125 C602,628.228 602.728,627.5 603.625,627.5 C604.522,627.5 605.25,628.228 605.25,629.125 z M598.75,629.125 C598.75,630.022 598.022,630.75 597.125,630.75 C596.228,630.75 595.5,630.022 595.5,629.125 C595.5,628.228 596.228,627.5 597.125,627.5 C598.022,627.5 598.75,628.228 598.75,629.125 z" fill="#00A8AA"/>
    </g>
    <g>
      <path d="M718.823,647 C720.618,647 722.073,648.455 722.073,650.25 L722.073,653.5 C722.073,655.295 720.618,656.75 718.823,656.75 L679.823,656.75 C678.028,656.75 676.573,655.295 676.573,653.5 L676.573,650.25 C676.573,648.455 678.028,647 679.823,647 L718.823,647 z M679.823,643.75 C676.233,643.75 673.323,646.66 673.323,650.25 L673.323,653.5 C673.323,657.09 676.233,660 679.823,660 L718.823,660 C722.413,660 725.323,657.09 725.323,653.5 L725.323,650.25 C725.323,646.66 722.413,643.75 718.823,643.75 L679.823,643.75 z" fill="#00A8AA"/>
      <path d="M689.573,651.875 C689.573,652.772 688.846,653.5 687.948,653.5 C687.051,653.5 686.323,652.772 686.323,651.875 C686.323,650.978 687.051,650.25 687.948,650.25 C688.846,650.25 689.573,650.978 689.573,651.875 z M683.073,651.875 C683.073,652.772 682.346,653.5 681.448,653.5 C680.551,653.5 679.823,652.772 679.823,651.875 C679.823,650.978 680.551,650.25 681.448,650.25 C682.346,650.25 683.073,650.978 683.073,651.875 z M718.823,624.25 C720.618,624.25 722.073,625.705 722.073,627.5 L722.073,630.75 C722.073,632.545 720.618,634 718.823,634 L679.823,634 C678.028,634 676.573,632.545 676.573,630.75 L676.573,627.5 C676.573,625.705 678.028,624.25 679.823,624.25 L718.823,624.25 z M679.823,621 C676.233,621 673.323,623.91 673.323,627.5 L673.323,630.75 C673.323,634.34 676.233,637.25 679.823,637.25 L718.823,637.25 C722.413,637.25 725.323,634.34 725.323,630.75 L725.323,627.5 C725.323,623.91 722.413,621 718.823,621 L679.823,621 z" fill="#00A8AA"/>
      <path d="M689.573,629.125 C689.573,630.022 688.846,630.75 687.948,630.75 C687.051,630.75 686.323,630.022 686.323,629.125 C686.323,628.228 687.051,627.5 687.948,627.5 C688.846,627.5 689.573,628.228 689.573,629.125 z M683.073,629.125 C683.073,630.022 682.346,630.75 681.448,630.75 C680.551,630.75 679.823,630.022 679.823,629.125 C679.823,628.228 680.551,627.5 681.448,627.5 C682.346,627.5 683.073,628.228 683.073,629.125 z" fill="#00A8AA"/>
    </g>
    <g>
      <path d="M387.336,611.5 L490.416,542.717" fill-opacity="0" stroke="#00A8AA" stroke-width="3"/>
      <path d="M490.416,542.717 L490.418,547.765 L497.404,538.055 L485.756,540.778 z" fill="#00A8AA" fill-opacity="1" stroke="#00A8AA" stroke-width="3" stroke-opacity="1"/>
    </g>
    <g>
      <path d="M454.349,611.5 L511.527,559.804" fill-opacity="0" stroke="#00A8AA" stroke-width="3"/>
      <path d="M511.527,559.804 L512.267,564.797 L517.758,554.171 L506.634,558.566 z" fill="#00A8AA" fill-opacity="1" stroke="#00A8AA" stroke-width="3" stroke-opacity="1"/>
    </g>
    <g>
      <path d="M614.349,611.5 L602.902,579.355" fill-opacity="0" stroke="#00A8AA" stroke-width="3"/>
      <path d="M602.902,579.355 L607.798,580.584 L600.084,571.442 L599.885,583.402 z" fill="#00A8AA" fill-opacity="1" stroke="#00A8AA" stroke-width="3" stroke-opacity="1"/>
    </g>
    <g>
      <path d="M533.1,611.5 L542.361,585.36" fill-opacity="0" stroke="#00A8AA" stroke-width="3"/>
      <path d="M542.361,585.36 L545.385,589.402 L545.166,577.443 L537.467,586.597 z" fill="#00A8AA" fill-opacity="1" stroke="#00A8AA" stroke-width="3" stroke-opacity="1"/>
    </g>
    <g>
      <path d="M693.623,611.5 L638.473,559.921" fill-opacity="0" stroke="#00A8AA" stroke-width="3"/>
      <path d="M638.473,559.921 L643.387,558.766 L632.338,554.183 L637.649,564.901 z" fill="#00A8AA" fill-opacity="1" stroke="#00A8AA" stroke-width="3" stroke-opacity="1"/>
    </g>
    <g>
      <path d="M371.399,576 L495.698,576 L495.698,602 L371.399,602 L371.399,576 z" fill="#FFFFFF"/>
      <text transform="matrix(1, 0, 0, 1, 435.463, 589)">
        <tspan x="-60.235" y="7" font-family="HelveticaNeue-Medium" font-size="21" fill="#00A8AA">HTTP/NATS</tspan>
      </text>
    </g>
  </g>
</svg>
